<svg width="192" height="340" viewBox="0 0 192 340" fill="none" xmlns="http://www.w3.org/2000/svg">
<rect width="119" height="44" fill="url(#paint0_linear_113_1799)"/>
<path d="M10.688 22.416C10.688 21.328 10.9333 20.352 11.424 19.488C11.9147 18.6133 12.5813 17.9307 13.424 17.44C14.2773 16.9493 15.2213 16.704 16.256 16.704C17.472 16.704 18.5333 16.9973 19.44 17.584C20.3467 18.1707 21.008 19.0027 21.424 20.08H19.68C19.3707 19.408 18.9227 18.8907 18.336 18.528C17.76 18.1653 17.0667 17.984 16.256 17.984C15.4773 17.984 14.7787 18.1653 14.16 18.528C13.5413 18.8907 13.056 19.408 12.704 20.08C12.352 20.7413 12.176 21.52 12.176 22.416C12.176 23.3013 12.352 24.08 12.704 24.752C13.056 25.4133 13.5413 25.9253 14.16 26.288C14.7787 26.6507 15.4773 26.832 16.256 26.832C17.0667 26.832 17.76 26.656 18.336 26.304C18.9227 25.9413 19.3707 25.424 19.68 24.752H21.424C21.008 25.8187 20.3467 26.6453 19.44 27.232C18.5333 27.808 17.472 28.096 16.256 28.096C15.2213 28.096 14.2773 27.856 13.424 27.376C12.5813 26.8853 11.9147 26.208 11.424 25.344C10.9333 24.48 10.688 23.504 10.688 22.416ZM30.1834 25.52H25.3194L24.4234 28H22.8874L26.9194 16.912H28.5994L32.6154 28H31.0794L30.1834 25.52ZM29.7674 24.336L27.7514 18.704L25.7354 24.336H29.7674ZM41.2366 16.848V18.032H38.1966V28H36.7406V18.032H33.6846V16.848H41.2366ZM44.4849 18.032V21.76H48.5489V22.96H44.4849V26.8H49.0289V28H43.0289V16.832H49.0289V18.032H44.4849ZM59.68 20.08C59.3707 19.4293 58.9227 18.928 58.336 18.576C57.7493 18.2133 57.0667 18.032 56.288 18.032C55.5093 18.032 54.8053 18.2133 54.176 18.576C53.5573 18.928 53.0667 19.44 52.704 20.112C52.352 20.7733 52.176 21.5413 52.176 22.416C52.176 23.2907 52.352 24.0587 52.704 24.72C53.0667 25.3813 53.5573 25.8933 54.176 26.256C54.8053 26.608 55.5093 26.784 56.288 26.784C57.376 26.784 58.272 26.4587 58.976 25.808C59.68 25.1573 60.0907 24.2773 60.208 23.168H55.76V21.984H61.76V23.104C61.6747 24.0213 61.3867 24.864 60.896 25.632C60.4053 26.3893 59.76 26.992 58.96 27.44C58.16 27.8773 57.2693 28.096 56.288 28.096C55.2533 28.096 54.3093 27.856 53.456 27.376C52.6027 26.8853 51.9253 26.208 51.424 25.344C50.9333 24.48 50.688 23.504 50.688 22.416C50.688 21.328 50.9333 20.352 51.424 19.488C51.9253 18.6133 52.6027 17.936 53.456 17.456C54.3093 16.9653 55.2533 16.72 56.288 16.72C57.472 16.72 58.5173 17.0133 59.424 17.6C60.3413 18.1867 61.008 19.0133 61.424 20.08H59.68ZM68.7411 28.112C67.7065 28.112 66.7625 27.872 65.9091 27.392C65.0558 26.9013 64.3785 26.224 63.8771 25.36C63.3865 24.4853 63.1411 23.504 63.1411 22.416C63.1411 21.328 63.3865 20.352 63.8771 19.488C64.3785 18.6133 65.0558 17.936 65.9091 17.456C66.7625 16.9653 67.7065 16.72 68.7411 16.72C69.7865 16.72 70.7358 16.9653 71.5891 17.456C72.4425 17.936 73.1145 18.608 73.6051 19.472C74.0958 20.336 74.3411 21.3173 74.3411 22.416C74.3411 23.5147 74.0958 24.496 73.6051 25.36C73.1145 26.224 72.4425 26.9013 71.5891 27.392C70.7358 27.872 69.7865 28.112 68.7411 28.112ZM68.7411 26.848C69.5198 26.848 70.2185 26.6667 70.8371 26.304C71.4665 25.9413 71.9571 25.424 72.3091 24.752C72.6718 24.08 72.8531 23.3013 72.8531 22.416C72.8531 21.52 72.6718 20.7413 72.3091 20.08C71.9571 19.408 71.4718 18.8907 70.8531 18.528C70.2345 18.1653 69.5305 17.984 68.7411 17.984C67.9518 17.984 67.2478 18.1653 66.6291 18.528C66.0105 18.8907 65.5198 19.408 65.1571 20.08C64.8051 20.7413 64.6291 21.52 64.6291 22.416C64.6291 23.3013 64.8051 24.08 65.1571 24.752C65.5198 25.424 66.0105 25.9413 66.6291 26.304C67.2585 26.6667 67.9625 26.848 68.7411 26.848ZM82.1353 28L79.4793 23.44H77.7193V28H76.2633V16.848H79.8633C80.7059 16.848 81.4153 16.992 81.9913 17.28C82.5779 17.568 83.0153 17.9573 83.3033 18.448C83.5913 18.9387 83.7353 19.4987 83.7353 20.128C83.7353 20.896 83.5113 21.5733 83.0633 22.16C82.6259 22.7467 81.9646 23.136 81.0793 23.328L83.8793 28H82.1353ZM77.7193 22.272H79.8633C80.6526 22.272 81.2446 22.08 81.6393 21.696C82.0339 21.3013 82.2313 20.7787 82.2313 20.128C82.2313 19.4667 82.0339 18.9547 81.6393 18.592C81.2553 18.2293 80.6633 18.048 79.8633 18.048H77.7193V22.272ZM87.4536 16.848V28H85.9976V16.848H87.4536ZM96.5271 25.52H91.6631L90.7671 28H89.2311L93.2631 16.912H94.9431L98.9591 28H97.4231L96.5271 25.52ZM96.1111 24.336L94.0951 18.704L92.0791 24.336H96.1111ZM104.252 28.112C103.516 28.112 102.855 27.984 102.268 27.728C101.692 27.4613 101.239 27.0987 100.908 26.64C100.578 26.1707 100.407 25.632 100.396 25.024H101.948C102.002 25.5467 102.215 25.9893 102.588 26.352C102.972 26.704 103.527 26.88 104.252 26.88C104.946 26.88 105.49 26.7093 105.884 26.368C106.29 26.016 106.492 25.568 106.492 25.024C106.492 24.5973 106.375 24.2507 106.14 23.984C105.906 23.7173 105.612 23.5147 105.26 23.376C104.908 23.2373 104.434 23.088 103.836 22.928C103.1 22.736 102.508 22.544 102.06 22.352C101.623 22.16 101.244 21.8613 100.924 21.456C100.615 21.04 100.46 20.4853 100.46 19.792C100.46 19.184 100.615 18.6453 100.924 18.176C101.234 17.7067 101.666 17.344 102.22 17.088C102.786 16.832 103.431 16.704 104.156 16.704C105.202 16.704 106.055 16.9653 106.716 17.488C107.388 18.0107 107.767 18.704 107.852 19.568H106.252C106.199 19.1413 105.975 18.768 105.58 18.448C105.186 18.1173 104.663 17.952 104.012 17.952C103.404 17.952 102.908 18.112 102.524 18.432C102.14 18.7413 101.948 19.1787 101.948 19.744C101.948 20.1493 102.06 20.48 102.284 20.736C102.519 20.992 102.802 21.1893 103.132 21.328C103.474 21.456 103.948 21.6053 104.556 21.776C105.292 21.9787 105.884 22.1813 106.332 22.384C106.78 22.576 107.164 22.88 107.484 23.296C107.804 23.7013 107.964 24.256 107.964 24.96C107.964 25.504 107.82 26.016 107.532 26.496C107.244 26.976 106.818 27.3653 106.252 27.664C105.687 27.9627 105.02 28.112 104.252 28.112Z" fill="white"/>
<rect width="179" height="296" transform="translate(0 44)" fill="white"/>
<rect width="179" height="64" transform="translate(0 44)" fill="url(#paint1_linear_113_1799)"/>
<path d="M32.688 78.112C32.688 79.04 32.368 79.8133 31.728 80.432C31.0987 81.04 30.1333 81.344 28.832 81.344H26.688V86H25.232V74.848H28.832C30.0907 74.848 31.0453 75.152 31.696 75.76C32.3573 76.368 32.688 77.152 32.688 78.112ZM28.832 80.144C29.6427 80.144 30.24 79.968 30.624 79.616C31.008 79.264 31.2 78.7627 31.2 78.112C31.2 76.736 30.4107 76.048 28.832 76.048H26.688V80.144H28.832ZM40.3696 86L37.7136 81.44H35.9536V86H34.4976V74.848H38.0976C38.9403 74.848 39.6496 74.992 40.2256 75.28C40.8123 75.568 41.2496 75.9573 41.5376 76.448C41.8256 76.9387 41.9696 77.4987 41.9696 78.128C41.9696 78.896 41.7456 79.5733 41.2976 80.16C40.8603 80.7467 40.199 81.136 39.3136 81.328L42.1136 86H40.3696ZM35.9536 80.272H38.0976C38.887 80.272 39.479 80.08 39.8736 79.696C40.2683 79.3013 40.4656 78.7787 40.4656 78.128C40.4656 77.4667 40.2683 76.9547 39.8736 76.592C39.4896 76.2293 38.8976 76.048 38.0976 76.048H35.9536V80.272ZM49.288 86.112C48.2533 86.112 47.3093 85.872 46.456 85.392C45.6027 84.9013 44.9253 84.224 44.424 83.36C43.9333 82.4853 43.688 81.504 43.688 80.416C43.688 79.328 43.9333 78.352 44.424 77.488C44.9253 76.6133 45.6027 75.936 46.456 75.456C47.3093 74.9653 48.2533 74.72 49.288 74.72C50.3333 74.72 51.2827 74.9653 52.136 75.456C52.9893 75.936 53.6613 76.608 54.152 77.472C54.6427 78.336 54.888 79.3173 54.888 80.416C54.888 81.5147 54.6427 82.496 54.152 83.36C53.6613 84.224 52.9893 84.9013 52.136 85.392C51.2827 85.872 50.3333 86.112 49.288 86.112ZM49.288 84.848C50.0667 84.848 50.7653 84.6667 51.384 84.304C52.0133 83.9413 52.504 83.424 52.856 82.752C53.2187 82.08 53.4 81.3013 53.4 80.416C53.4 79.52 53.2187 78.7413 52.856 78.08C52.504 77.408 52.0187 76.8907 51.4 76.528C50.7813 76.1653 50.0773 75.984 49.288 75.984C48.4987 75.984 47.7947 76.1653 47.176 76.528C46.5573 76.8907 46.0667 77.408 45.704 78.08C45.352 78.7413 45.176 79.52 45.176 80.416C45.176 81.3013 45.352 82.08 45.704 82.752C46.0667 83.424 46.5573 83.9413 47.176 84.304C47.8053 84.6667 48.5093 84.848 49.288 84.848ZM65.2581 78.08C64.9488 77.4293 64.5008 76.928 63.9141 76.576C63.3275 76.2133 62.6448 76.032 61.8661 76.032C61.0875 76.032 60.3835 76.2133 59.7541 76.576C59.1355 76.928 58.6448 77.44 58.2821 78.112C57.9301 78.7733 57.7541 79.5413 57.7541 80.416C57.7541 81.2907 57.9301 82.0587 58.2821 82.72C58.6448 83.3813 59.1355 83.8933 59.7541 84.256C60.3835 84.608 61.0875 84.784 61.8661 84.784C62.9541 84.784 63.8501 84.4587 64.5541 83.808C65.2581 83.1573 65.6688 82.2773 65.7861 81.168H61.3381V79.984H67.3381V81.104C67.2528 82.0213 66.9648 82.864 66.4741 83.632C65.9835 84.3893 65.3381 84.992 64.5381 85.44C63.7381 85.8773 62.8475 86.096 61.8661 86.096C60.8315 86.096 59.8875 85.856 59.0341 85.376C58.1808 84.8853 57.5035 84.208 57.0021 83.344C56.5115 82.48 56.2661 81.504 56.2661 80.416C56.2661 79.328 56.5115 78.352 57.0021 77.488C57.5035 76.6133 58.1808 75.936 59.0341 75.456C59.8875 74.9653 60.8315 74.72 61.8661 74.72C63.0501 74.72 64.0955 75.0133 65.0021 75.6C65.9195 76.1867 66.5861 77.0133 67.0021 78.08H65.2581ZM75.1353 86L72.4793 81.44H70.7193V86H69.2633V74.848H72.8633C73.7059 74.848 74.4153 74.992 74.9913 75.28C75.5779 75.568 76.0153 75.9573 76.3033 76.448C76.5913 76.9387 76.7353 77.4987 76.7353 78.128C76.7353 78.896 76.5113 79.5733 76.0633 80.16C75.6259 80.7467 74.9646 81.136 74.0793 81.328L76.8793 86H75.1353ZM70.7193 80.272H72.8633C73.6526 80.272 74.2446 80.08 74.6393 79.696C75.0339 79.3013 75.2313 78.7787 75.2313 78.128C75.2313 77.4667 75.0339 76.9547 74.6393 76.592C74.2553 76.2293 73.6633 76.048 72.8633 76.048H70.7193V80.272ZM85.5896 83.52H80.7256L79.8296 86H78.2936L82.3256 74.912H84.0056L88.0216 86H86.4856L85.5896 83.52ZM85.1736 82.336L83.1576 76.704L81.1416 82.336H85.1736ZM101.091 74.928V86H99.6349V77.744L95.9549 86H94.9309L91.2349 77.728V86H89.7789V74.928H91.3469L95.4429 84.08L99.5389 74.928H101.091ZM110.152 83.52H105.288L104.392 86H102.856L106.888 74.912H108.568L112.584 86H111.048L110.152 83.52ZM109.736 82.336L107.72 76.704L105.704 82.336H109.736ZM119.365 84.832C120.176 84.832 120.869 84.656 121.445 84.304C122.032 83.9413 122.48 83.424 122.789 82.752H124.533C124.149 83.7333 123.552 84.512 122.741 85.088C121.941 85.664 121.003 85.9947 119.925 86.08V86.928C120.555 86.9173 121.056 87.0507 121.429 87.328C121.803 87.6053 121.989 88 121.989 88.512C121.989 89.0133 121.808 89.4133 121.445 89.712C121.083 90.0107 120.613 90.16 120.037 90.16H118.197V89.216H119.749C120.101 89.216 120.357 89.1627 120.517 89.056C120.688 88.9493 120.773 88.768 120.773 88.512C120.773 88.2667 120.688 88.0907 120.517 87.984C120.357 87.8773 120.101 87.824 119.749 87.824H118.949V86.08C117.979 86.016 117.099 85.7387 116.309 85.248C115.531 84.7467 114.917 84.08 114.469 83.248C114.021 82.4053 113.797 81.4613 113.797 80.416C113.797 79.328 114.043 78.352 114.533 77.488C115.024 76.6133 115.691 75.9307 116.533 75.44C117.387 74.9493 118.331 74.704 119.365 74.704C120.581 74.704 121.643 74.9973 122.549 75.584C123.456 76.1707 124.117 77.0027 124.533 78.08H122.789C122.48 77.408 122.032 76.8907 121.445 76.528C120.869 76.1653 120.176 75.984 119.365 75.984C118.587 75.984 117.888 76.1653 117.269 76.528C116.651 76.8907 116.165 77.408 115.813 78.08C115.461 78.7413 115.285 79.52 115.285 80.416C115.285 81.3013 115.461 82.08 115.813 82.752C116.165 83.4133 116.651 83.9253 117.269 84.288C117.888 84.6507 118.587 84.832 119.365 84.832ZM133.293 83.52H128.429L127.533 86H125.997L130.029 74.912H131.709L135.725 86H134.189L133.293 83.52ZM132.877 82.336L130.861 76.704L128.845 82.336H132.877ZM128.509 73.968C128.583 73.424 128.759 73.008 129.037 72.72C129.325 72.432 129.682 72.288 130.109 72.288C130.311 72.288 130.482 72.3253 130.621 72.4C130.77 72.464 130.946 72.56 131.149 72.688C131.298 72.7947 131.431 72.88 131.549 72.944C131.666 72.9973 131.794 73.024 131.933 73.024C132.114 73.024 132.269 72.9653 132.397 72.848C132.525 72.7307 132.605 72.56 132.637 72.336H133.469C133.405 72.8693 133.229 73.28 132.941 73.568C132.653 73.856 132.295 74 131.869 74C131.666 74 131.485 73.968 131.325 73.904C131.175 73.8293 131.005 73.7227 130.813 73.584C130.642 73.4773 130.503 73.3973 130.397 73.344C130.301 73.2907 130.183 73.264 130.045 73.264C129.863 73.264 129.709 73.3227 129.581 73.44C129.463 73.5573 129.389 73.7333 129.357 73.968H128.509ZM142.538 86.112C141.503 86.112 140.559 85.872 139.706 85.392C138.853 84.9013 138.175 84.224 137.674 83.36C137.183 82.4853 136.938 81.504 136.938 80.416C136.938 79.328 137.183 78.352 137.674 77.488C138.175 76.6133 138.853 75.936 139.706 75.456C140.559 74.9653 141.503 74.72 142.538 74.72C143.583 74.72 144.533 74.9653 145.386 75.456C146.239 75.936 146.911 76.608 147.402 77.472C147.893 78.336 148.138 79.3173 148.138 80.416C148.138 81.5147 147.893 82.496 147.402 83.36C146.911 84.224 146.239 84.9013 145.386 85.392C144.533 85.872 143.583 86.112 142.538 86.112ZM142.538 84.848C143.317 84.848 144.015 84.6667 144.634 84.304C145.263 83.9413 145.754 83.424 146.106 82.752C146.469 82.08 146.65 81.3013 146.65 80.416C146.65 79.52 146.469 78.7413 146.106 78.08C145.754 77.408 145.269 76.8907 144.65 76.528C144.031 76.1653 143.327 75.984 142.538 75.984C141.749 75.984 141.045 76.1653 140.426 76.528C139.807 76.8907 139.317 77.408 138.954 78.08C138.602 78.7413 138.426 79.52 138.426 80.416C138.426 81.3013 138.602 82.08 138.954 82.752C139.317 83.424 139.807 83.9413 140.426 84.304C141.055 84.6667 141.759 84.848 142.538 84.848Z" fill="white"/>
<rect width="179" height="56" transform="translate(0 108)" fill="white"/>
<path d="M31.536 130.848V132.032H26.688V135.792H30.624V136.976H26.688V142H25.232V130.848H31.536ZM39.1665 142L36.5105 137.44H34.7505V142H33.2945V130.848H36.8945C37.7372 130.848 38.4465 130.992 39.0225 131.28C39.6092 131.568 40.0465 131.957 40.3345 132.448C40.6225 132.939 40.7665 133.499 40.7665 134.128C40.7665 134.896 40.5425 135.573 40.0945 136.16C39.6572 136.747 38.9958 137.136 38.1105 137.328L40.9105 142H39.1665ZM34.7505 136.272H36.8945C37.6838 136.272 38.2758 136.08 38.6705 135.696C39.0652 135.301 39.2625 134.779 39.2625 134.128C39.2625 133.467 39.0652 132.955 38.6705 132.592C38.2865 132.229 37.6945 132.048 36.8945 132.048H34.7505V136.272ZM48.0849 142.112C47.0502 142.112 46.1062 141.872 45.2529 141.392C44.3995 140.901 43.7222 140.224 43.2209 139.36C42.7302 138.485 42.4849 137.504 42.4849 136.416C42.4849 135.328 42.7302 134.352 43.2209 133.488C43.7222 132.613 44.3995 131.936 45.2529 131.456C46.1062 130.965 47.0502 130.72 48.0849 130.72C49.1302 130.72 50.0795 130.965 50.9329 131.456C51.7862 131.936 52.4582 132.608 52.9489 133.472C53.4395 134.336 53.6849 135.317 53.6849 136.416C53.6849 137.515 53.4395 138.496 52.9489 139.36C52.4582 140.224 51.7862 140.901 50.9329 141.392C50.0795 141.872 49.1302 142.112 48.0849 142.112ZM48.0849 140.848C48.8635 140.848 49.5622 140.667 50.1809 140.304C50.8102 139.941 51.3009 139.424 51.6529 138.752C52.0155 138.08 52.1969 137.301 52.1969 136.416C52.1969 135.52 52.0155 134.741 51.6529 134.08C51.3009 133.408 50.8155 132.891 50.1969 132.528C49.5782 132.165 48.8742 131.984 48.0849 131.984C47.2955 131.984 46.5915 132.165 45.9729 132.528C45.3542 132.891 44.8635 133.408 44.5009 134.08C44.1489 134.741 43.9729 135.52 43.9729 136.416C43.9729 137.301 44.1489 138.08 44.5009 138.752C44.8635 139.424 45.3542 139.941 45.9729 140.304C46.6022 140.667 47.3062 140.848 48.0849 140.848ZM64.375 142H62.919L57.063 133.12V142H55.607V130.832H57.063L62.919 139.696V130.832H64.375V142ZM73.721 130.848V132.032H70.681V142H69.225V132.032H66.169V130.848H73.721ZM81.5933 135.52V136.752H75.2093V135.52H81.5933ZM85.7818 132.032V135.76H89.8458V136.96H85.7818V140.8H90.3258V142H84.3258V130.832H90.3258V132.032H85.7818ZM101.297 142H99.8409L93.9849 133.12V142H92.5289V130.832H93.9849L99.8409 139.696V130.832H101.297V142ZM107.251 130.848C108.467 130.848 109.518 131.077 110.403 131.536C111.299 131.984 111.982 132.629 112.451 133.472C112.931 134.315 113.171 135.307 113.171 136.448C113.171 137.589 112.931 138.581 112.451 139.424C111.982 140.256 111.299 140.896 110.403 141.344C109.518 141.781 108.467 142 107.251 142H103.779V130.848H107.251ZM107.251 140.8C108.691 140.8 109.79 140.421 110.547 139.664C111.304 138.896 111.683 137.824 111.683 136.448C111.683 135.061 111.299 133.979 110.531 133.2C109.774 132.421 108.68 132.032 107.251 132.032H105.235V140.8H107.251Z" fill="url(#paint2_linear_113_1799)"/>
<rect width="179" height="56" transform="translate(0 164)" fill="white"/>
<path d="M26.688 186.848V198H25.232V186.848H26.688ZM37.9375 198H36.4815L30.6255 189.12V198H29.1695V186.832H30.6255L36.4815 195.696V186.832H37.9375V198ZM46.7235 186.848V188.032H41.8755V191.792H45.8115V192.976H41.8755V198H40.4195V186.848H46.7235ZM54.354 198L51.698 193.44H49.938V198H48.482V186.848H52.082C52.9247 186.848 53.634 186.992 54.21 187.28C54.7967 187.568 55.234 187.957 55.522 188.448C55.81 188.939 55.954 189.499 55.954 190.128C55.954 190.896 55.73 191.573 55.282 192.16C54.8447 192.747 54.1833 193.136 53.298 193.328L56.098 198H54.354ZM49.938 192.272H52.082C52.8713 192.272 53.4633 192.08 53.858 191.696C54.2527 191.301 54.45 190.779 54.45 190.128C54.45 189.467 54.2527 188.955 53.858 188.592C53.474 188.229 52.882 188.048 52.082 188.048H49.938V192.272ZM64.8084 195.52H59.9444L59.0484 198H57.5124L61.5444 186.912H63.2244L67.2404 198H65.7044L64.8084 195.52ZM64.3924 194.336L62.3764 188.704L60.3604 194.336H64.3924ZM70.4536 188.032V191.76H74.5176V192.96H70.4536V196.8H74.9976V198H68.9976V186.832H74.9976V188.032H70.4536ZM80.7368 198.112C80.0008 198.112 79.3394 197.984 78.7528 197.728C78.1768 197.461 77.7234 197.099 77.3928 196.64C77.0621 196.171 76.8914 195.632 76.8808 195.024H78.4328C78.4861 195.547 78.6994 195.989 79.0728 196.352C79.4568 196.704 80.0114 196.88 80.7368 196.88C81.4301 196.88 81.9741 196.709 82.3688 196.368C82.7741 196.016 82.9768 195.568 82.9768 195.024C82.9768 194.597 82.8594 194.251 82.6248 193.984C82.3901 193.717 82.0968 193.515 81.7448 193.376C81.3928 193.237 80.9181 193.088 80.3208 192.928C79.5848 192.736 78.9928 192.544 78.5448 192.352C78.1074 192.16 77.7288 191.861 77.4088 191.456C77.0994 191.04 76.9448 190.485 76.9448 189.792C76.9448 189.184 77.0994 188.645 77.4088 188.176C77.7181 187.707 78.1501 187.344 78.7048 187.088C79.2701 186.832 79.9154 186.704 80.6408 186.704C81.6861 186.704 82.5394 186.965 83.2008 187.488C83.8728 188.011 84.2514 188.704 84.3368 189.568H82.7368C82.6834 189.141 82.4594 188.768 82.0648 188.448C81.6701 188.117 81.1474 187.952 80.4968 187.952C79.8888 187.952 79.3928 188.112 79.0088 188.432C78.6248 188.741 78.4328 189.179 78.4328 189.744C78.4328 190.149 78.5448 190.48 78.7688 190.736C79.0034 190.992 79.2861 191.189 79.6168 191.328C79.9581 191.456 80.4328 191.605 81.0408 191.776C81.7768 191.979 82.3688 192.181 82.8168 192.384C83.2648 192.576 83.6488 192.88 83.9688 193.296C84.2888 193.701 84.4488 194.256 84.4488 194.96C84.4488 195.504 84.3048 196.016 84.0168 196.496C83.7288 196.976 83.3021 197.365 82.7368 197.664C82.1714 197.963 81.5048 198.112 80.7368 198.112ZM93.4554 186.848V188.032H90.4154V198H88.9594V188.032H85.9034V186.848H93.4554ZM101.12 198L98.4636 193.44H96.7036V198H95.2476V186.848H98.8476C99.6903 186.848 100.4 186.992 100.976 187.28C101.562 187.568 102 187.957 102.288 188.448C102.576 188.939 102.72 189.499 102.72 190.128C102.72 190.896 102.496 191.573 102.048 192.16C101.61 192.747 100.949 193.136 100.064 193.328L102.864 198H101.12ZM96.7036 192.272H98.8476C99.637 192.272 100.229 192.08 100.624 191.696C101.018 191.301 101.216 190.779 101.216 190.128C101.216 189.467 101.018 188.955 100.624 188.592C100.24 188.229 99.6476 188.048 98.8476 188.048H96.7036V192.272ZM106.406 186.848V193.904C106.406 194.896 106.646 195.632 107.126 196.112C107.617 196.592 108.294 196.832 109.158 196.832C110.011 196.832 110.678 196.592 111.158 196.112C111.649 195.632 111.894 194.896 111.894 193.904V186.848H113.35V193.888C113.35 194.816 113.163 195.6 112.79 196.24C112.417 196.869 111.91 197.339 111.27 197.648C110.641 197.957 109.931 198.112 109.142 198.112C108.353 198.112 107.638 197.957 106.998 197.648C106.369 197.339 105.867 196.869 105.494 196.24C105.131 195.6 104.95 194.816 104.95 193.888V186.848H106.406ZM122.643 186.848V188.032H119.603V198H118.147V188.032H115.091V186.848H122.643ZM125.859 186.848V193.904C125.859 194.896 126.099 195.632 126.579 196.112C127.07 196.592 127.747 196.832 128.611 196.832C129.464 196.832 130.131 196.592 130.611 196.112C131.102 195.632 131.347 194.896 131.347 193.904V186.848H132.803V193.888C132.803 194.816 132.616 195.6 132.243 196.24C131.87 196.869 131.363 197.339 130.723 197.648C130.094 197.957 129.384 198.112 128.595 198.112C127.806 198.112 127.091 197.957 126.451 197.648C125.822 197.339 125.32 196.869 124.947 196.24C124.584 195.6 124.403 194.816 124.403 193.888V186.848H125.859ZM141.104 198L138.448 193.44H136.688V198H135.232V186.848H138.832C139.675 186.848 140.384 186.992 140.96 187.28C141.547 187.568 141.984 187.957 142.272 188.448C142.56 188.939 142.704 189.499 142.704 190.128C142.704 190.896 142.48 191.573 142.032 192.16C141.595 192.747 140.933 193.136 140.048 193.328L142.848 198H141.104ZM136.688 192.272H138.832C139.621 192.272 140.213 192.08 140.608 191.696C141.003 191.301 141.2 190.779 141.2 190.128C141.2 189.467 141.003 188.955 140.608 188.592C140.224 188.229 139.632 188.048 138.832 188.048H136.688V192.272ZM151.558 195.52H146.694L145.798 198H144.262L148.294 186.912H149.974L153.99 198H152.454L151.558 195.52ZM151.142 194.336L149.126 188.704L147.11 194.336H151.142Z" fill="url(#paint3_linear_113_1799)"/>
<rect width="179" height="56" transform="translate(0 220)" fill="white"/>
<path d="M30.816 248.256C31.2213 248.32 31.5893 248.485 31.92 248.752C32.2613 249.019 32.528 249.349 32.72 249.744C32.9227 250.139 33.024 250.56 33.024 251.008C33.024 251.573 32.88 252.085 32.592 252.544C32.304 252.992 31.8827 253.349 31.328 253.616C30.784 253.872 30.1387 254 29.392 254H25.232V242.848H29.232C29.9893 242.848 30.6347 242.976 31.168 243.232C31.7013 243.477 32.1013 243.813 32.368 244.24C32.6347 244.667 32.768 245.147 32.768 245.68C32.768 246.341 32.5867 246.891 32.224 247.328C31.872 247.755 31.4027 248.064 30.816 248.256ZM26.688 247.664H29.136C29.8187 247.664 30.3467 247.504 30.72 247.184C31.0933 246.864 31.28 246.421 31.28 245.856C31.28 245.291 31.0933 244.848 30.72 244.528C30.3467 244.208 29.808 244.048 29.104 244.048H26.688V247.664ZM29.264 252.8C29.9893 252.8 30.5547 252.629 30.96 252.288C31.3653 251.947 31.568 251.472 31.568 250.864C31.568 250.245 31.3547 249.76 30.928 249.408C30.5013 249.045 29.9307 248.864 29.216 248.864H26.688V252.8H29.264ZM36.4685 242.848V249.904C36.4685 250.896 36.7085 251.632 37.1885 252.112C37.6792 252.592 38.3565 252.832 39.2205 252.832C40.0738 252.832 40.7405 252.592 41.2205 252.112C41.7112 251.632 41.9565 250.896 41.9565 249.904V242.848H43.4125V249.888C43.4125 250.816 43.2258 251.6 42.8525 252.24C42.4792 252.869 41.9725 253.339 41.3325 253.648C40.7032 253.957 39.9938 254.112 39.2045 254.112C38.4152 254.112 37.7005 253.957 37.0605 253.648C36.4312 253.339 35.9298 252.869 35.5565 252.24C35.1938 251.6 35.0125 250.816 35.0125 249.888V242.848H36.4685ZM49.3774 254.112C48.6414 254.112 47.98 253.984 47.3934 253.728C46.8174 253.461 46.364 253.099 46.0334 252.64C45.7027 252.171 45.532 251.632 45.5214 251.024H47.0734C47.1267 251.547 47.34 251.989 47.7134 252.352C48.0974 252.704 48.652 252.88 49.3774 252.88C50.0707 252.88 50.6147 252.709 51.0094 252.368C51.4147 252.016 51.6174 251.568 51.6174 251.024C51.6174 250.597 51.5 250.251 51.2654 249.984C51.0307 249.717 50.7374 249.515 50.3854 249.376C50.0334 249.237 49.5587 249.088 48.9614 248.928C48.2254 248.736 47.6334 248.544 47.1854 248.352C46.748 248.16 46.3694 247.861 46.0494 247.456C45.74 247.04 45.5854 246.485 45.5854 245.792C45.5854 245.184 45.74 244.645 46.0494 244.176C46.3587 243.707 46.7907 243.344 47.3454 243.088C47.9107 242.832 48.556 242.704 49.2814 242.704C50.3267 242.704 51.18 242.965 51.8414 243.488C52.5134 244.011 52.892 244.704 52.9774 245.568H51.3774C51.324 245.141 51.1 244.768 50.7054 244.448C50.3107 244.117 49.788 243.952 49.1374 243.952C48.5294 243.952 48.0334 244.112 47.6494 244.432C47.2654 244.741 47.0734 245.179 47.0734 245.744C47.0734 246.149 47.1854 246.48 47.4094 246.736C47.644 246.992 47.9267 247.189 48.2574 247.328C48.5987 247.456 49.0734 247.605 49.6814 247.776C50.4174 247.979 51.0094 248.181 51.4574 248.384C51.9054 248.576 52.2894 248.88 52.6094 249.296C52.9294 249.701 53.0894 250.256 53.0894 250.96C53.0894 251.504 52.9454 252.016 52.6574 252.496C52.3694 252.976 51.9427 253.365 51.3774 253.664C50.812 253.963 50.1454 254.112 49.3774 254.112ZM56.688 242.848V254H55.232V242.848H56.688ZM67.9375 254H66.4815L60.6255 245.12V254H59.1695V242.832H60.6255L66.4815 251.696V242.832H67.9375V254ZM71.8755 244.032V247.76H75.9395V248.96H71.8755V252.8H76.4195V254H70.4195V242.832H76.4195V244.032H71.8755ZM82.1586 254.112C81.4226 254.112 80.7613 253.984 80.1746 253.728C79.5986 253.461 79.1453 253.099 78.8146 252.64C78.484 252.171 78.3133 251.632 78.3026 251.024H79.8546C79.908 251.547 80.1213 251.989 80.4946 252.352C80.8786 252.704 81.4333 252.88 82.1586 252.88C82.852 252.88 83.396 252.709 83.7906 252.368C84.196 252.016 84.3986 251.568 84.3986 251.024C84.3986 250.597 84.2813 250.251 84.0466 249.984C83.812 249.717 83.5186 249.515 83.1666 249.376C82.8146 249.237 82.34 249.088 81.7426 248.928C81.0066 248.736 80.4146 248.544 79.9666 248.352C79.5293 248.16 79.1506 247.861 78.8306 247.456C78.5213 247.04 78.3666 246.485 78.3666 245.792C78.3666 245.184 78.5213 244.645 78.8306 244.176C79.14 243.707 79.572 243.344 80.1266 243.088C80.692 242.832 81.3373 242.704 82.0626 242.704C83.108 242.704 83.9613 242.965 84.6226 243.488C85.2946 244.011 85.6733 244.704 85.7586 245.568H84.1586C84.1053 245.141 83.8813 244.768 83.4866 244.448C83.092 244.117 82.5693 243.952 81.9186 243.952C81.3106 243.952 80.8146 244.112 80.4306 244.432C80.0466 244.741 79.8546 245.179 79.8546 245.744C79.8546 246.149 79.9666 246.48 80.1906 246.736C80.4253 246.992 80.708 247.189 81.0386 247.328C81.38 247.456 81.8546 247.605 82.4626 247.776C83.1986 247.979 83.7906 248.181 84.2386 248.384C84.6866 248.576 85.0706 248.88 85.3906 249.296C85.7106 249.701 85.8706 250.256 85.8706 250.96C85.8706 251.504 85.7266 252.016 85.4386 252.496C85.1506 252.976 84.724 253.365 84.1586 253.664C83.5933 253.963 82.9266 254.112 82.1586 254.112ZM91.5493 254.112C90.8133 254.112 90.1519 253.984 89.5653 253.728C88.9893 253.461 88.5359 253.099 88.2053 252.64C87.8746 252.171 87.7039 251.632 87.6933 251.024H89.2453C89.2986 251.547 89.5119 251.989 89.8853 252.352C90.2693 252.704 90.8239 252.88 91.5493 252.88C92.2426 252.88 92.7866 252.709 93.1813 252.368C93.5866 252.016 93.7893 251.568 93.7893 251.024C93.7893 250.597 93.6719 250.251 93.4373 249.984C93.2026 249.717 92.9093 249.515 92.5573 249.376C92.2053 249.237 91.7306 249.088 91.1333 248.928C90.3973 248.736 89.8053 248.544 89.3573 248.352C88.9199 248.16 88.5413 247.861 88.2213 247.456C87.9119 247.04 87.7573 246.485 87.7573 245.792C87.7573 245.184 87.9119 244.645 88.2213 244.176C88.5306 243.707 88.9626 243.344 89.5173 243.088C90.0826 242.832 90.7279 242.704 91.4533 242.704C92.4986 242.704 93.3519 242.965 94.0133 243.488C94.6853 244.011 95.0639 244.704 95.1493 245.568H93.5493C93.4959 245.141 93.2719 244.768 92.8773 244.448C92.4826 244.117 91.9599 243.952 91.3093 243.952C90.7013 243.952 90.2053 244.112 89.8213 244.432C89.4373 244.741 89.2453 245.179 89.2453 245.744C89.2453 246.149 89.3573 246.48 89.5813 246.736C89.8159 246.992 90.0986 247.189 90.4293 247.328C90.7706 247.456 91.2453 247.605 91.8533 247.776C92.5893 247.979 93.1813 248.181 93.6293 248.384C94.0773 248.576 94.4613 248.88 94.7812 249.296C95.1013 249.701 95.2613 250.256 95.2613 250.96C95.2613 251.504 95.1173 252.016 94.8293 252.496C94.5413 252.976 94.1146 253.365 93.5493 253.664C92.9839 253.963 92.3173 254.112 91.5493 254.112Z" fill="url(#paint4_linear_113_1799)"/>
<rect width="179" height="64" transform="translate(0 276)" fill="white"/>
<path d="M28.704 298.848C29.92 298.848 30.9707 299.077 31.856 299.536C32.752 299.984 33.4347 300.629 33.904 301.472C34.384 302.315 34.624 303.307 34.624 304.448C34.624 305.589 34.384 306.581 33.904 307.424C33.4347 308.256 32.752 308.896 31.856 309.344C30.9707 309.781 29.92 310 28.704 310H25.232V298.848H28.704ZM28.704 308.8C30.144 308.8 31.2427 308.421 32 307.664C32.7573 306.896 33.136 305.824 33.136 304.448C33.136 303.061 32.752 301.979 31.984 301.2C31.2267 300.421 30.1333 300.032 28.704 300.032H26.688V308.8H28.704ZM38.0005 300.032V303.76H42.0645V304.96H38.0005V308.8H42.5445V310H36.5445V298.832H42.5445V300.032H38.0005ZM48.2836 310.112C47.5476 310.112 46.8863 309.984 46.2996 309.728C45.7236 309.461 45.2703 309.099 44.9396 308.64C44.609 308.171 44.4383 307.632 44.4276 307.024H45.9796C46.033 307.547 46.2463 307.989 46.6196 308.352C47.0036 308.704 47.5583 308.88 48.2836 308.88C48.977 308.88 49.521 308.709 49.9156 308.368C50.321 308.016 50.5236 307.568 50.5236 307.024C50.5236 306.597 50.4063 306.251 50.1716 305.984C49.937 305.717 49.6436 305.515 49.2916 305.376C48.9396 305.237 48.465 305.088 47.8676 304.928C47.1316 304.736 46.5396 304.544 46.0916 304.352C45.6543 304.16 45.2756 303.861 44.9556 303.456C44.6463 303.04 44.4916 302.485 44.4916 301.792C44.4916 301.184 44.6463 300.645 44.9556 300.176C45.265 299.707 45.697 299.344 46.2516 299.088C46.817 298.832 47.4623 298.704 48.1876 298.704C49.233 298.704 50.0863 298.965 50.7476 299.488C51.4196 300.011 51.7983 300.704 51.8836 301.568H50.2836C50.2303 301.141 50.0063 300.768 49.6116 300.448C49.217 300.117 48.6943 299.952 48.0436 299.952C47.4356 299.952 46.9396 300.112 46.5556 300.432C46.1716 300.741 45.9796 301.179 45.9796 301.744C45.9796 302.149 46.0916 302.48 46.3156 302.736C46.5503 302.992 46.833 303.189 47.1636 303.328C47.505 303.456 47.9796 303.605 48.5876 303.776C49.3236 303.979 49.9156 304.181 50.3636 304.384C50.8116 304.576 51.1956 304.88 51.5156 305.296C51.8356 305.701 51.9956 306.256 51.9956 306.96C51.9956 307.504 51.8516 308.016 51.5636 308.496C51.2756 308.976 50.849 309.365 50.2836 309.664C49.7183 309.963 49.0516 310.112 48.2836 310.112ZM55.5943 298.848V310H54.1383V298.848H55.5943ZM66.5238 302.08C66.2144 301.429 65.7664 300.928 65.1798 300.576C64.5931 300.213 63.9104 300.032 63.1318 300.032C62.3531 300.032 61.6491 300.213 61.0198 300.576C60.4011 300.928 59.9104 301.44 59.5478 302.112C59.1958 302.773 59.0198 303.541 59.0198 304.416C59.0198 305.291 59.1958 306.059 59.5478 306.72C59.9104 307.381 60.4011 307.893 61.0198 308.256C61.6491 308.608 62.3531 308.784 63.1318 308.784C64.2198 308.784 65.1158 308.459 65.8198 307.808C66.5238 307.157 66.9344 306.277 67.0518 305.168H62.6038V303.984H68.6038V305.104C68.5184 306.021 68.2304 306.864 67.7398 307.632C67.2491 308.389 66.6038 308.992 65.8038 309.44C65.0038 309.877 64.1131 310.096 63.1318 310.096C62.0971 310.096 61.1531 309.856 60.2998 309.376C59.4464 308.885 58.7691 308.208 58.2678 307.344C57.7771 306.48 57.5318 305.504 57.5318 304.416C57.5318 303.328 57.7771 302.352 58.2678 301.488C58.7691 300.613 59.4464 299.936 60.2998 299.456C61.1531 298.965 62.0971 298.72 63.1318 298.72C64.3158 298.72 65.3611 299.013 66.2678 299.6C67.1851 300.187 67.8518 301.013 68.2678 302.08H66.5238ZM79.2969 310H77.8409L71.9849 301.12V310H70.5289V298.832H71.9849L77.8409 307.696V298.832H79.2969V310ZM94.6045 310L93.1485 308.528C92.6045 309.093 92.0232 309.515 91.4045 309.792C90.7858 310.059 90.0872 310.192 89.3085 310.192C88.5405 310.192 87.8578 310.053 87.2605 309.776C86.6738 309.499 86.2152 309.104 85.8845 308.592C85.5645 308.08 85.4045 307.483 85.4045 306.8C85.4045 306.021 85.6232 305.339 86.0605 304.752C86.5085 304.155 87.1645 303.685 88.0285 303.344C87.6872 302.939 87.4418 302.565 87.2925 302.224C87.1432 301.883 87.0685 301.509 87.0685 301.104C87.0685 300.635 87.1858 300.213 87.4205 299.84C87.6658 299.456 88.0125 299.157 88.4605 298.944C88.9085 298.731 89.4258 298.624 90.0125 298.624C90.5885 298.624 91.0898 298.736 91.5165 298.96C91.9432 299.184 92.2632 299.499 92.4765 299.904C92.6898 300.299 92.7858 300.741 92.7645 301.232H91.3085C91.3192 300.795 91.1965 300.453 90.9405 300.208C90.6845 299.952 90.3538 299.824 89.9485 299.824C89.5218 299.824 89.1752 299.947 88.9085 300.192C88.6525 300.427 88.5245 300.731 88.5245 301.104C88.5245 301.424 88.6098 301.733 88.7805 302.032C88.9618 302.331 89.2605 302.699 89.6765 303.136L93.0045 306.48L93.2925 306.032L94.3805 304.208H95.9485L94.6365 306.48C94.4552 306.8 94.2418 307.136 93.9965 307.488L96.5085 310H94.6045ZM89.3085 308.944C89.8845 308.944 90.4018 308.832 90.8605 308.608C91.3298 308.384 91.7725 308.037 92.1885 307.568L88.9085 304.272C87.5432 304.795 86.8605 305.621 86.8605 306.752C86.8605 307.381 87.0845 307.904 87.5325 308.32C87.9912 308.736 88.5832 308.944 89.3085 308.944ZM103.562 298.848V305.904C103.562 306.896 103.802 307.632 104.282 308.112C104.773 308.592 105.45 308.832 106.314 308.832C107.168 308.832 107.834 308.592 108.314 308.112C108.805 307.632 109.05 306.896 109.05 305.904V298.848H110.506V305.888C110.506 306.816 110.32 307.6 109.946 308.24C109.573 308.869 109.066 309.339 108.426 309.648C107.797 309.957 107.088 310.112 106.298 310.112C105.509 310.112 104.794 309.957 104.154 309.648C103.525 309.339 103.024 308.869 102.65 308.24C102.288 307.6 102.106 306.816 102.106 305.888V298.848H103.562ZM117.495 304.432L120.919 310H119.271L116.599 305.648L114.055 310H112.439L115.847 304.432L112.423 298.848H114.055L116.743 303.216L119.303 298.848H120.935L117.495 304.432Z" fill="url(#paint5_linear_113_1799)"/>
<defs>
<linearGradient id="paint0_linear_113_1799" x1="49.7211" y1="-5.28002" x2="204.847" y2="50.2726" gradientUnits="userSpaceOnUse">
<stop stop-color="#002F52"/>
<stop offset="1" stop-color="#326589"/>
</linearGradient>
<linearGradient id="paint1_linear_113_1799" x1="74.7905" y1="-7.68002" x2="306.304" y2="78.0582" gradientUnits="userSpaceOnUse">
<stop stop-color="#002F52"/>
<stop offset="1" stop-color="#326589"/>
</linearGradient>
<linearGradient id="paint2_linear_113_1799" x1="61.6042" y1="121.12" x2="167.792" y2="173.846" gradientUnits="userSpaceOnUse">
<stop stop-color="#002F52"/>
<stop offset="1" stop-color="#326589"/>
</linearGradient>
<linearGradient id="paint3_linear_113_1799" x1="78.735" y1="177.12" x2="205.295" y2="268.59" gradientUnits="userSpaceOnUse">
<stop stop-color="#002F52"/>
<stop offset="1" stop-color="#326589"/>
</linearGradient>
<linearGradient id="paint4_linear_113_1799" x1="54.5012" y1="233.12" x2="146.882" y2="270.326" gradientUnits="userSpaceOnUse">
<stop stop-color="#002F52"/>
<stop offset="1" stop-color="#326589"/>
</linearGradient>
<linearGradient id="paint5_linear_113_1799" x1="64.9468" y1="289.12" x2="176.477" y2="349.422" gradientUnits="userSpaceOnUse">
<stop stop-color="#002F52"/>
<stop offset="1" stop-color="#326589"/>
</linearGradient>
</defs>
</svg>
